<svg id="Layer_3" enable-background="new 0 0 64 64" height="512" viewBox="0 0 64 64" width="512" xmlns="http://www.w3.org/2000/svg"><g><path d="m30.414 37h32.586v-2h-62v2h26.586l-4.465 4.465c-.723.723-1.121 1.684-1.121 2.707 0 2.11 1.718 3.828 3.828 3.828 1.022 0 1.984-.398 2.707-1.121l4.879-4.879h3.172l9.879 9.879c.34.34.535.811.535 1.293 0 1.008-.82 1.828-1.828 1.828-.481 0-.953-.195-1.293-.535l-8.172-8.172-1.414 1.414 6.172 6.172c.34.34.535.811.535 1.293 0 1.008-.82 1.828-1.828 1.828-.481 0-.953-.195-1.293-.535l-7.172-7.172-1.414 1.414 5.172 5.172c.34.34.535.811.535 1.293 0 1.008-.82 1.828-1.828 1.828-.481 0-.953-.195-1.293-.535l-6.172-6.172-1.414 1.414 4.172 4.172c.34.34.535.811.535 1.293 0 1.008-.82 1.828-1.828 1.828-.481 0-.953-.195-1.293-.535l-8.172-8.172c-.187-.188-.441-.293-.707-.293h-7v2h6.586l7.879 7.879c.723.723 1.684 1.121 2.707 1.121 1.755 0 3.223-1.195 3.673-2.809.666.515 1.471.809 2.327.809 1.755 0 3.223-1.195 3.673-2.809.666.515 1.471.809 2.327.809 1.755 0 3.223-1.195 3.673-2.809.666.515 1.471.809 2.327.809 1.825 0 3.352-1.287 3.732-3h7.096v-2h-7.201c-.184-.571-.485-1.099-.921-1.535l-10.171-10.172c-.187-.188-.441-.293-.707-.293h-4c-.266 0-.52.105-.707.293l-5.172 5.172c-.34.34-.811.535-1.293.535-1.008 0-1.828-.82-1.828-1.828 0-.481.195-.953.535-1.293z"/><path d="m2 29h18c.553 0 1-.447 1-1v-4c0-3.401-2.44-6.241-5.66-6.868.576-.605 1.025-1.329 1.31-2.132h1.35c1.654 0 3-1.346 3-3 0-1.302-.839-2.402-2-2.816v-3.184c0-2.757-2.243-5-5-5h-6c-2.757 0-5 2.243-5 5v3.184c-1.161.414-2 1.514-2 2.816 0 1.654 1.346 3 3 3h1.35c.285.803.734 1.527 1.31 2.132-3.22.627-5.66 3.467-5.66 6.868v4c0 .553.447 1 1 1zm9-10h2.382l-.656 1.312-1.019-1.019c-.195-.195-.451-.293-.707-.293s-.512.098-.707.293l-1.019 1.019-.656-1.312zm-4-6v-2h1c1.612 0 4.21-.876 5.747-2.374.329.531.755.996 1.253 1.371v3.003c0 2.206-1.794 4-4 4s-4-1.794-4-4zm11 0h-1v-2h1c.552 0 1 .448 1 1s-.448 1-1 1zm-13-7c0-1.654 1.346-3 3-3h6c1.654 0 3 1.346 3 3v2.829c-1.164-.413-2-1.525-2-2.829 0-.553-.447-1-1-1s-1 .447-1 1c0 1.391-3.025 3-5 3h-3zm-1 7c-.552 0-1-.448-1-1s.448-1 1-1h1v2zm-1 11c0-2.234 1.483-4.108 3.508-4.747l1.597 3.195c.144.287.417.488.734.54.318.052.641-.053.867-.28l1.294-1.294 1.293 1.293c.188.189.444.293.707.293.053 0 .106-.004.16-.013.317-.052.591-.253.734-.54l1.597-3.195c2.026.64 3.509 2.514 3.509 4.748v3h-2v-4h-2v4h-8v-4h-2v4h-2z"/><path d="m44.542 17.922c-2.112 1.206-3.542 3.476-3.542 6.078v4c0 .553.447 1 1 1h18c.553 0 1-.447 1-1v-4c0-2.602-1.43-4.872-3.542-6.078 2.176-.3 4.136-1.508 5.375-3.367.205-.307.224-.701.05-1.026s-.514-.529-.883-.529c-1.654 0-3-1.346-3-3v-1c0-4.411-3.589-8-8-8s-8 3.589-8 8v1c0 1.654-1.346 3-3 3-.369 0-.708.203-.882.528s-.155.72.05 1.026c1.238 1.859 3.198 3.067 5.374 3.368zm3.458 1.078h3 3l-1.109 1.478-1.185-1.185c-.194-.195-.45-.293-.706-.293s-.512.098-.707.293l-1.185 1.185zm7-6c0 2.206-1.794 4-4 4s-4-1.794-4-4v-2c1.634 0 3.087-.788 4-2.003.913 1.215 2.366 2.003 4 2.003zm4 11v3h-2v-4h-2v4h-8v-4h-2v4h-2v-3c0-1.993 1.18-3.703 2.871-4.506l2.329 3.106c.174.232.439.377.729.397.301.026.573-.085.778-.29l1.293-1.293 1.293 1.293c.188.189.442.293.707.293.023 0 .047-.001.071-.003.289-.021.555-.165.729-.397l2.329-3.106c1.691.803 2.871 2.513 2.871 4.506zm-14-14v-1c0-3.309 2.691-6 6-6s6 2.691 6 6v1c0 2.091 1.29 3.886 3.115 4.631-1.024.874-2.337 1.369-3.72 1.369h-.206c.512-.884.811-1.907.811-3v-3c0-.553-.447-1-1-1h-1c-1.654 0-3-1.346-3-3 0-.553-.447-1-1-1s-1 .447-1 1c0 1.654-1.346 3-3 3h-1c-.553 0-1 .447-1 1v3c0 1.093.299 2.116.812 3h-.206c-1.384 0-2.696-.495-3.721-1.369 1.825-.745 3.115-2.54 3.115-4.631z"/><path d="m31 28c4.411 0 8-3.589 8-8 0-2.543-1.197-4.808-3.052-6.274l.975-2.341-1.846-.77-.861 2.065c-.985-.434-2.072-.68-3.216-.68-4.411 0-8 3.589-8 8s3.589 8 8 8zm0-14c.872 0 1.699.191 2.447.527l-2.697 6.473-1.95-2.6-1.6 1.2 3 4c.19.254.487.4.8.4.041 0 .082-.003.124-.008.356-.044.661-.276.799-.607l3.216-7.718c1.144 1.093 1.861 2.629 1.861 4.333 0 3.309-2.691 6-6 6s-6-2.691-6-6 2.691-6 6-6z"/></g></svg>